<?xml version="1.0" encoding="UTF-8" standalone="no"?>
<!-- Generator: Adobe Illustrator 18.1.0, SVG Export Plug-In . SVG Version: 6.00 Build 0)  -->

<svg
   xmlns:dc="http://purl.org/dc/elements/1.1/"
   xmlns:cc="http://creativecommons.org/ns#"
   xmlns:rdf="http://www.w3.org/1999/02/22-rdf-syntax-ns#"
   xmlns:svg="http://www.w3.org/2000/svg"
   xmlns="http://www.w3.org/2000/svg"
   xmlns:sodipodi="http://sodipodi.sourceforge.net/DTD/sodipodi-0.dtd"
   xmlns:inkscape="http://www.inkscape.org/namespaces/inkscape"
   version="1.1"
   id="compass"
   x="0px"
   y="0px"
   viewBox="0 0 595.3 595.3"
   enable-background="new 0 0 595.3 595.3"
   xml:space="preserve"
   inkscape:version="0.48.4 r9939"
   width="100%"
   height="100%"
   sodipodi:docname="compas.svg"><metadata
     id="metadata15"><rdf:RDF><cc:Work
         rdf:about=""><dc:format>image/svg+xml</dc:format><dc:type
           rdf:resource="http://purl.org/dc/dcmitype/StillImage" /></cc:Work></rdf:RDF></metadata><defs
     id="defs13" /><sodipodi:namedview
     pagecolor="#ffffff"
     bordercolor="#666666"
     borderopacity="1"
     objecttolerance="10"
     gridtolerance="10"
     guidetolerance="10"
     inkscape:pageopacity="0"
     inkscape:pageshadow="2"
     inkscape:window-width="640"
     inkscape:window-height="480"
     id="namedview11"
     showgrid="false"
     inkscape:zoom="0.39643877"
     inkscape:cx="297.65"
     inkscape:cy="297.65"
     inkscape:window-x="0"
     inkscape:window-y="30"
     inkscape:window-maximized="0"
     inkscape:current-layer="compass" /><g
     id="g3"
     style="stroke:#ffffff;fill:#ffffff"><path
       d="M297.6,0C134,0,0,134,0,297.6s134,297.6,297.6,297.6s297.6-134,297.6-297.6S461.3,0,297.6,0z M297.6,570.5   C146.3,570.5,24.8,449,24.8,297.6S146.3,24.8,297.6,24.8s272.8,121.5,272.8,272.8S449,570.5,297.6,570.5z"
       id="path5"
       style="stroke:#ffffff;fill:#ffffff" /><path
       d="M124,471.3l248-99.2l99.2-248l-248,99.2L124,471.3z M426.6,168.7l-74.4,183.6l-183.6,74.4l74.4-183.6L426.6,168.7z"
       id="path7"
       style="stroke:#ffffff;fill:#ffffff" /><circle
       cx="297.6"
       cy="297.6"
       r="19.8"
       id="circle9"
       style="stroke:#ffffff;fill:#ffffff" /></g></svg>