<?xml version="1.0" encoding="UTF-8" standalone="no"?>
<!-- Generator: Adobe Illustrator 18.1.0, SVG Export Plug-In . SVG Version: 6.00 Build 0)  -->

<svg
   xmlns:dc="http://purl.org/dc/elements/1.1/"
   xmlns:cc="http://creativecommons.org/ns#"
   xmlns:rdf="http://www.w3.org/1999/02/22-rdf-syntax-ns#"
   xmlns:svg="http://www.w3.org/2000/svg"
   xmlns="http://www.w3.org/2000/svg"
   xmlns:sodipodi="http://sodipodi.sourceforge.net/DTD/sodipodi-0.dtd"
   xmlns:inkscape="http://www.inkscape.org/namespaces/inkscape"
   version="1.1"
   id="joystick"
   x="0px"
   y="0px"
   viewBox="0 0 659 663"
   enable-background="new 0 0 659 663"
   xml:space="preserve"
   inkscape:version="0.48.4 r9939"
   width="100%"
   height="100%"
   sodipodi:docname="joystick.svg"><metadata
     id="metadata21"><rdf:RDF><cc:Work
         rdf:about=""><dc:format>image/svg+xml</dc:format><dc:type
           rdf:resource="http://purl.org/dc/dcmitype/StillImage" /></cc:Work></rdf:RDF></metadata><defs
     id="defs19" /><sodipodi:namedview
     pagecolor="#ffffff"
     bordercolor="#666666"
     borderopacity="1"
     objecttolerance="10"
     gridtolerance="10"
     guidetolerance="10"
     inkscape:pageopacity="0"
     inkscape:pageshadow="2"
     inkscape:window-width="640"
     inkscape:window-height="480"
     id="namedview17"
     showgrid="false"
     inkscape:zoom="0.35595777"
     inkscape:cx="329.5"
     inkscape:cy="331.5"
     inkscape:window-x="0"
     inkscape:window-y="30"
     inkscape:window-maximized="0"
     inkscape:current-layer="joystick" /><g
     id="g3"
     style="fill:#ffffff"><circle
       cx="434.8"
       cy="134.2"
       r="21"
       id="circle5"
       style="fill:#ffffff" /><circle
       cx="526.8"
       cy="226.3"
       r="21"
       id="circle7"
       style="fill:#ffffff" /><circle
       cx="526.8"
       cy="134.2"
       r="21"
       id="circle9"
       style="fill:#ffffff" /><circle
       cx="434.8"
       cy="226.3"
       r="21"
       id="circle11"
       style="fill:#ffffff" /><path
       d="M605.8,55.2C568.9,18.4,521.6,0,474.2,0s-94.7,18.4-131.5,55.2L208.5,189.4L90.1,71l-21,21l118.4,118.4L53.3,344.6   c-71,71-71,192.1,0,263.1c36.8,36.8,84.2,55.2,131.5,55.2s94.7-18.4,131.5-55.2l39.5-39.5v-78.9l131.5-131.5h78.9l39.5-39.5   C676.8,247.3,676.8,126.3,605.8,55.2z M587.3,299.9l-31.6,31.6h-68.4h-10.5l-7.9,7.9L337.4,470.9l-7.9,7.9v10.5v68.4L298,589.3   c-28.9,28.9-71,47.4-113.1,47.4s-84.2-15.8-113.1-47.4c-60.5-60.5-60.5-165.7,0-226.3L361.1,73.7c28.9-28.9,71-47.4,113.1-47.4   c42.1,0,84.2,15.8,113.1,47.4C647.9,134.2,647.9,239.4,587.3,299.9z"
       id="path13"
       style="fill:#ffffff" /><polygon
       points="226.9,413.1 184.8,457.8 142.7,413.1 121.7,434.1 166.4,476.2 121.7,518.3 142.7,539.3 184.8,494.6 226.9,539.3    248,518.3 203.2,476.2 248,434.1  "
       id="polygon15"
       style="fill:#ffffff" /></g></svg>